<?xml version="1.0" standalone="no"?>
<!DOCTYPE svg PUBLIC "-//W3C//DTD SVG 20010904//EN"
 "http://www.w3.org/TR/2001/REC-SVG-20010904/DTD/svg10.dtd">
<svg version="1.0" xmlns="http://www.w3.org/2000/svg"
 width="22.5pt" height="30pt" viewBox="0 0 1618.000000 1600.000000"
 preserveAspectRatio="xMidYMid meet">

<g transform="translate(0.000000,1600.000000) scale(0.100000,-0.100000)"
fill="#000000" stroke="none">
<path d="M8185 10543 c-192 -25 -379 -160 -464 -333 -69 -142 -71 -157 -71
-748 l0 -523 -24 -42 c-13 -23 -33 -71 -44 -107 -45 -147 -47 -207 -44 -1058
2 -442 0 -812 -3 -823 -8 -24 -44 -40 -73 -32 -12 3 -25 17 -30 33 -6 15 -10
144 -11 286 0 143 -4 428 -7 636 l-7 376 -131 6 c-72 3 -738 12 -1481 21 -742
9 -1633 20 -1980 25 -1470 21 -2702 33 -2718 27 -14 -5 -17 -20 -17 -92 0 -95
13 -133 54 -155 l26 -13 0 -663 0 -663 -47 -6 c-138 -20 -234 -117 -250 -254
-7 -62 10 -113 54 -162 51 -57 101 -71 245 -73 96 -1 133 3 169 17 52 20 108
74 139 135 13 24 31 44 44 47 11 3 95 4 186 3 l165 -3 8 -175 c6 -136 11 -178
23 -192 24 -26 160 -93 248 -123 168 -56 389 -90 658 -102 l156 -6 46 27 c60
35 97 91 101 153 l3 48 59 -3 c32 -1 72 -5 90 -8 l32 -5 0 -137 c0 -303 93
-546 288 -752 165 -176 383 -293 615 -330 125 -20 352 -9 463 24 348 101 626
365 736 697 l31 94 3530 -2 3531 -3 29 -87 c100 -300 339 -551 632 -664 229
-89 510 -94 742 -15 433 147 734 566 734 1021 0 85 -23 244 -45 304 -8 24 -14
45 -13 47 2 1 24 0 49 -3 45 -5 48 -7 70 -57 74 -159 343 -312 418 -237 19 19
21 32 21 131 0 98 2 110 19 120 35 18 40 66 40 400 1 179 4 363 7 410 6 81 8
87 44 125 74 78 100 171 100 361 0 130 -14 198 -56 271 -41 70 -72 83 -227 90
l-134 6 -6 101 c-21 344 -188 597 -492 745 -264 129 -475 170 -1455 282 -976
111 -1163 130 -1495 154 -121 9 -221 19 -223 24 -1 4 -27 50 -56 102 -29 52
-167 297 -306 544 -139 248 -268 471 -287 497 -70 96 -180 177 -300 219 -135
48 -167 49 -1153 47 -509 0 -938 -3 -955 -5z m2492 -500 c33 -60 158 -281 278
-493 119 -212 219 -388 221 -392 5 -8 -176 -148 -192 -148 -27 0 -58 46 -169
255 -65 121 -173 324 -241 451 -68 127 -127 244 -130 261 -3 17 1 45 9 66 13
29 29 43 84 71 37 19 71 35 74 36 3 0 33 -48 66 -107z m-679 -145 c88 -33 175
-112 257 -233 43 -64 76 -129 266 -520 73 -151 80 -193 36 -230 -38 -33 -75
-36 -402 -33 l-290 3 -3 510 c-1 281 0 516 3 523 6 16 56 8 133 -20z m-188
-498 l0 -520 -596 2 c-581 3 -596 4 -610 23 -12 17 -14 89 -12 467 3 435 4
447 24 475 11 15 38 38 60 50 l39 23 548 0 547 0 0 -520z m2880 -564 c717 -47
1350 -154 1565 -263 204 -104 385 -275 474 -450 12 -24 18 -43 14 -43 -5 0
-31 15 -58 33 -427 284 -1286 491 -2760 667 -245 29 -340 50 -319 70 5 5 23
10 39 12 69 7 819 -11 1045 -26z m-3950 -402 c0 -41 -23 -67 -126 -140 -58
-41 -181 -104 -204 -104 -6 0 -10 51 -10 140 l0 140 170 0 170 0 0 -36z m4460
-585 c91 -5 170 -15 175 -20 7 -7 3 -16 -11 -28 -16 -12 -64 -23 -165 -35
-1106 -136 -1464 -353 -1739 -1052 -40 -103 -71 -196 -149 -453 -10 -34 -38
-51 -51 -31 -16 24 -12 376 5 500 31 222 116 439 234 597 297 397 875 575
1701 522z m-9613 -34 c3 -9 3 -19 0 -22 -4 -3 -72 -16 -153 -29 -562 -89 -831
-192 -1041 -401 -128 -126 -268 -361 -357 -598 -38 -101 -59 -140 -76 -140
-37 0 -14 298 35 471 73 254 227 444 454 562 236 123 477 169 889 171 210 1
243 -1 249 -14z m1193 -30 c617 -112 1024 -514 1137 -1125 14 -74 18 -144 17
-310 -1 -243 -9 -305 -39 -305 -22 0 -18 -14 -56 230 -69 455 -215 794 -448
1037 -246 258 -576 394 -1038 428 -81 6 -152 15 -157 20 -14 14 12 38 47 43
76 11 445 -1 537 -18z m10472 -135 c31 -76 33 -296 4 -380 -23 -68 -55 -122
-67 -114 -11 6 -13 577 -2 588 11 10 40 -32 65 -94z m-10721 -795 c247 -43
482 -181 623 -364 155 -202 225 -425 213 -680 -21 -445 -331 -814 -774 -923
-104 -25 -312 -30 -408 -10 -308 66 -544 237 -693 500 -154 272 -170 613 -41
900 76 170 237 350 397 446 207 124 455 171 683 131z m9246 -14 c278 -69 527
-266 650 -514 87 -175 120 -325 110 -511 -7 -138 -35 -253 -93 -375 -292 -620
-1098 -773 -1596 -302 -359 338 -418 884 -140 1292 150 220 385 373 652 424
103 20 308 13 417 -14z m-2718 -1027 c12 -15 21 -32 21 -39 0 -7 -9 -24 -21
-39 l-20 -26 -2373 0 c-2632 0 -2416 -6 -2416 65 0 71 -216 65 2416 65 l2373
0 20 -26z"/>
<path d="M4210 6774 l-55 -13 60 7 c326 37 644 -91 835 -336 75 -96 111 -163
149 -278 152 -455 -74 -944 -521 -1125 -88 -36 -134 -48 -263 -65 l-100 -13
110 4 c223 9 401 78 571 223 125 106 220 248 273 407 146 441 -61 921 -482
1121 -122 58 -249 84 -396 83 -69 -1 -151 -7 -181 -15z"/>
<path d="M4205 6504 c-337 -82 -553 -432 -480 -779 49 -234 244 -435 481 -495
244 -63 516 26 670 217 53 67 116 193 135 273 19 78 16 231 -5 310 -48 179
-179 341 -336 418 -47 23 -112 49 -145 57 -74 19 -239 18 -320 -1z m316 -234
c290 -112 371 -489 152 -708 -174 -174 -456 -168 -622 14 -221 242 -105 627
214 711 69 17 187 10 256 -17z"/>
<path d="M4298 6213 c7 -3 16 -2 19 1 4 3 -2 6 -13 5 -11 0 -14 -3 -6 -6z"/>
<path d="M4210 6187 c-62 -30 -136 -106 -168 -175 -23 -49 -27 -70 -27 -147 1
-78 5 -98 30 -149 36 -76 95 -135 171 -172 52 -26 70 -29 149 -29 82 0 97 3
157 33 81 40 149 111 177 188 25 64 27 98 4 39 -34 -84 -96 -149 -180 -188
-69 -32 -199 -31 -265 1 -69 34 -129 92 -163 158 -26 52 -30 69 -30 144 0 70
5 94 25 135 32 65 93 131 150 160 57 30 31 32 -30 2z"/>
<path d="M4379 6041 c-58 -58 -22 -154 63 -168 33 -5 41 -2 74 31 33 33 36 40
31 79 -12 85 -107 118 -168 58z"/>
<path d="M13430 6781 c-20 -4 18 -7 90 -8 257 -1 463 -81 637 -246 363 -345
380 -913 39 -1274 -167 -177 -350 -262 -636 -297 -19 -2 8 -2 60 0 167 6 307
46 442 128 203 123 360 330 420 556 30 112 32 349 4 450 -49 177 -124 309
-246 430 -134 135 -285 218 -462 254 -78 16 -278 20 -348 7z"/>
<path d="M13368 6763 c7 -3 16 -2 19 1 4 3 -2 6 -13 5 -11 0 -14 -3 -6 -6z"/>
<path d="M13363 6500 c-400 -105 -599 -557 -411 -933 54 -107 171 -227 275
-280 336 -174 746 -39 904 298 44 94 60 169 60 280 0 120 -17 191 -73 305 -78
160 -241 289 -423 335 -83 21 -242 19 -332 -5z m321 -229 c32 -11 83 -39 112
-61 307 -231 181 -710 -201 -771 -277 -43 -533 216 -485 492 47 272 316 431
574 340z"/>
<path d="M13468 6213 c7 -3 16 -2 19 1 4 3 -2 6 -13 5 -11 0 -14 -3 -6 -6z"/>
<path d="M13383 6189 c-70 -35 -130 -95 -165 -167 -30 -60 -33 -75 -33 -157 0
-77 4 -98 27 -147 34 -73 98 -137 174 -174 52 -25 70 -29 149 -29 78 0 98 4
153 29 70 32 143 104 173 171 26 55 24 80 -2 28 -29 -59 -94 -122 -159 -152
-46 -22 -69 -26 -140 -26 -73 0 -93 4 -141 28 -67 32 -132 99 -162 165 -30 67
-30 199 0 264 28 61 96 134 153 163 56 30 31 33 -27 4z"/>
<path d="M13549 6041 c-49 -49 -35 -126 28 -156 86 -41 172 49 129 133 -32 61
-108 72 -157 23z"/>
<path d="M13881 5804 c0 -11 3 -14 6 -6 3 7 2 16 -1 19 -3 4 -6 -2 -5 -13z"/>
</g>
</svg>
